<?xml version="1.0" standalone="no"?>
<!DOCTYPE svg PUBLIC "-//W3C//DTD SVG 20010904//EN"
 "http://www.w3.org/TR/2001/REC-SVG-20010904/DTD/svg10.dtd">
<svg version="1.0" xmlns="http://www.w3.org/2000/svg"
 width="1217.000000pt" height="650.000000pt" viewBox="0 0 1217.000000 650.000000"
 preserveAspectRatio="xMidYMid meet">
<metadata>
Created by potrace 1.15, written by Peter Selinger 2001-2017
</metadata>
<g transform="translate(0.000000,650.000000) scale(0.100000,-0.100000)"
fill="#000000" stroke="none">
<path d="M430 5185 l0 -25 740 0 740 0 0 -320 0 -320 -740 0 -740 0 0 -25 0
-25 765 0 765 0 0 190 0 190 690 0 690 0 0 -665 0 -665 -690 0 -690 0 0 170 0
170 -534 -2 c-294 -2 -532 0 -529 5 2 4 -1 7 -6 7 -6 0 -12 -10 -12 -22 -1
-19 -2 -20 -6 -5 -4 14 -12 18 -33 15 -16 -2 -27 -1 -24 4 3 4 0 8 -5 8 -6 0
-12 -10 -12 -22 -1 -17 -2 -19 -6 -5 -4 15 -21 17 -184 17 l-179 0 0 -25 0
-25 740 0 740 0 0 -320 0 -320 -740 0 -740 0 0 -25 0 -25 765 0 765 0 0 175 0
175 713 2 712 3 3 333 2 332 845 0 845 0 0 -1330 0 -1330 -855 0 -855 0 -2
343 -3 342 -702 3 -703 2 0 175 0 175 -765 0 -765 0 0 -25 0 -25 740 0 740 0
0 -320 0 -320 -740 0 -740 0 0 -25 0 -25 765 0 765 0 0 170 0 170 680 0 680 0
0 -650 0 -650 -680 0 -680 0 0 180 0 180 -765 0 -765 0 0 -25 0 -25 740 0 740
0 0 -320 0 -320 -740 0 -740 0 0 -25 0 -25 765 0 765 0 0 165 0 165 695 0
c676 0 695 1 705 19 6 12 10 135 10 330 l0 311 878 2 877 3 3 693 2 692 970 0
970 0 2 -692 3 -693 877 -3 878 -2 0 -311 c0 -195 4 -318 10 -330 10 -18 29
-19 705 -19 l695 0 0 -165 0 -165 765 0 765 0 0 25 0 25 -344 0 c-266 0 -345
-3 -349 -12 -4 -10 -6 -10 -6 0 -1 9 -86 12 -391 12 l-390 0 0 320 0 320 740
0 740 0 0 25 0 25 -765 0 -765 0 0 -180 0 -180 -680 0 -680 0 0 650 0 650 680
0 680 0 0 -170 0 -170 765 0 765 0 0 25 0 25 -740 0 -740 0 0 320 0 320 740 0
740 0 0 25 0 25 -765 0 -765 0 0 -175 0 -175 -702 -2 -703 -3 -3 -342 -2 -343
-855 0 -855 0 0 1330 0 1330 845 0 845 0 2 -332 3 -333 713 -3 712 -2 0 -175
0 -175 765 0 765 0 0 26 0 25 -232 -1 c-128 -1 -461 -1 -740 -1 l-508 1 0 320
0 320 740 0 740 0 0 25 0 25 -765 0 -765 0 0 -170 0 -170 -690 0 -690 0 0 665
0 665 690 0 690 0 0 -190 0 -190 765 0 765 0 0 25 0 25 -740 0 -740 0 0 320 0
320 740 0 740 0 0 25 0 25 -765 0 -765 0 0 -155 0 -155 -705 0 c-686 0 -705
-1 -715 -19 -6 -13 -10 -143 -10 -355 l0 -336 -860 0 c-839 0 -860 0 -870 -19
-6 -13 -10 -238 -10 -660 l0 -641 -970 0 -970 0 0 641 c0 422 -4 647 -10 660
-10 19 -31 19 -870 19 l-860 0 0 336 c0 212 -4 342 -10 355 -10 18 -29 19
-715 19 l-705 0 0 155 0 155 -765 0 -765 0 0 -25z"/>
</g>
</svg>
