<?xml version="1.0" encoding="utf-8"?>
<!-- Generator: Adobe Illustrator 20.1.0, SVG Export Plug-In . SVG Version: 6.00 Build 0)  -->
<svg version="1.1" id="Layer_1" xmlns="http://www.w3.org/2000/svg" xmlns:xlink="http://www.w3.org/1999/xlink" x="0px" y="0px"
	 viewBox="0 0 229.9 224.4" style="enable-background:new 0 0 229.9 224.4;" xml:space="preserve">
<style type="text/css">
	.st0{fill:#C6BB9D;stroke:#F1EBCF;stroke-width:5;stroke-miterlimit:10;}
	.st1{fill:#E0D3AD;stroke:#F1EBCF;stroke-width:5;stroke-miterlimit:10;}
	.st2{fill:#B4A67C;stroke:#F1EBCF;stroke-width:3;stroke-miterlimit:10;}
	.st3{stroke:#F1EBCF;stroke-width:3;stroke-miterlimit:10;}
	.st4{fill:#C6BB9D;stroke:#F1EBCF;stroke-width:3;stroke-miterlimit:10;}
	.st5{fill:#DCCE86;stroke:#F1EBCF;stroke-width:4;stroke-miterlimit:10;}
	.st6{fill:#B4A067;stroke:#F1EBCF;stroke-width:4;stroke-miterlimit:10;}
	.st7{fill:#B4A67C;stroke:#F1EBCF;stroke-width:4;stroke-miterlimit:10;}
	.st8{fill:#DCCE86;stroke:#F1EBCF;stroke-width:3;stroke-miterlimit:10;}
	.st9{stroke:#F1EBCF;stroke-width:4;stroke-miterlimit:10;}
	.st10{opacity:0.5;fill:none;stroke:#000000;stroke-width:0.25;stroke-miterlimit:10;}
</style>
<g>
	<polyline class="st0" points="121.1,123.3 128.7,148.2 142.7,141.6 134.7,123.3 	"/>
	<path class="st1" d="M103.4,121.3c0,0-0.7,14.5-16.5,31.3l-13.5-3.3c0,0,11.3-27.7,12.8-34"/>
	<path class="st2" d="M135.3,120.2l-0.2-10.1c0,0-27.2,0.7-36.2-18.6C98.9,91.5,110.3,115.4,135.3,120.2z"/>
	<path class="st3" d="M63.2,25.6l-4-17.8c0,0-1.3-3,1.5-2.8L84,18l-2.8,5.4C81.1,23.4,70.5,18.5,63.2,25.6z"/>
	<path class="st4" d="M103.1,18.6l24.1-8.2c0,0,2.8-1.5,1.6,1.1l-7,15.6c0,0-6.2-5.8-14.8-2.8L103.1,18.6z"/>
	<path class="st5" d="M124.6,52c0,0-1.7,30.6,17.1,43.5c0,0,8.4,8.2,23.9,8.4v2.1c0,0-20.5,5.4-43.4,0.7c0,0-13.7-3.2-19.2-11.5
		c0,0-9.9-12.3-9.2-37.8l5.6-4.1C99.4,53.4,113.2,64.9,124.6,52z"/>
	<circle class="st6" cx="111.6" cy="40.7" r="14.7"/>
	<path class="st7" d="M84.4,51.4c0,0,6.7-6.1,5.4-12.7h5.7c0,0-1.6,5.6,3.7,12.9l-6.7,4.7L84.4,51.4L84.4,51.4z"/>
	<path class="st8" d="M83,24.9l3.3-6.4l14.7,0.7l4,6.1c0,0-8.9,2.3-9.4,11.4h-5C90.6,36.6,89.4,28.4,83,24.9z"/>
	<path class="st6" d="M61.7,51.2c0,0-11.7,35,13.2,57.5c0,0,19.9,19.3,60.6,14.8v-1.1c0,0-45.9-7.9-44.6-65l-7.5-4.3
		C83.3,53.2,72.1,61,61.7,51.2z"/>
	<circle class="st9" cx="73.6" cy="38.9" r="14.7"/>
</g>
<g>
	<g>
		<path d="M19.5,176.2H4.6v-0.6h1.1c1.5,0,2.1-0.5,2.1-2.2v-14.8c0-1.8-0.5-2.5-2.6-2.5H4.7v-0.6h9.8v0.6h-1.2
			c-2.2,0-2.7,0.2-2.7,2.3v15.4c0,0.9,0.4,1.2,1.3,1.2h4.9c2,0,2.6-0.8,4.7-3.7h0.6L19.5,176.2z"/>
		<path d="M31.4,176.2h-8.1v-0.6c2.1-0.1,2.5-0.6,2.5-2.9v-14.2c0-1.8-0.6-2.3-2.5-2.4v-0.6h8.1v0.6c-2.1,0-2.8,0.5-2.8,2.7v14.1
			c0,2,0.5,2.6,2.8,2.6V176.2z"/>
		<path d="M54.5,176.4l-17.3-18.1v14.3c0,2.4,0.5,2.9,3.4,2.9v0.6h-7.7v-0.6H33c2.1,0,2.7-0.7,2.7-2.2v-16.4
			c-0.8-0.5-1.6-0.8-2.8-0.8v-0.6h5.2l15.7,16.4v-13.3c0-2-0.6-2.4-3.3-2.5v-0.6h7.8v0.6c-2.5,0-3,0.4-3,1.7v18.6H54.5z"/>
		<path d="M62.6,173.1c0,1.9-0.8,2.4-2.6,2.4h-0.6v0.6h10.7c8.4,0,12.3-6,12.3-11.1c0-5.5-3.9-10-12.7-10c-1.7,0-3.8,0-5.6,0.1
			c-1.8,0.1-3.5,0.1-4.7,0.2v0.6h0.7c2,0,2.5,0.5,2.5,2.7V173.1z M65.4,155.9c0.4,0,1.3-0.1,2.7-0.1c4.7,0,7,1.2,8.6,2.7
			c2,2,2.7,4.7,2.7,7.2c0,3.4-1.5,6-2.8,7.2c-2.1,2.1-3.9,2.7-8.4,2.7c-2.6,0-2.7-0.5-2.7-1.8V155.9z"/>
		<path d="M96.7,168.7H96c-0.3-2.4-0.9-2.6-2.3-2.6h-5.6v7.1c0,1.5,0.6,1.8,1.8,1.8h5.1c2.3,0,3-0.9,3.9-3.7h0.6l-0.5,5H81.3v-0.6
			h0.9c2.7,0,3.1-0.7,3.1-2.7v-14.1c0-1.9-0.4-2.7-2.7-2.7H82v-0.6h16l0.3,4.6h-0.6c-0.4-2.8-1.3-3.4-2.5-3.4h-7v8.2h6
			c1.2,0,1.8-0.6,1.9-2.5h0.6V168.7z"/>
		<path d="M121.9,176.4l-17.3-18.1v14.3c0,2.4,0.5,2.9,3.4,2.9v0.6h-7.7v-0.6h0.1c2.1,0,2.7-0.7,2.7-2.2v-16.4
			c-0.8-0.5-1.6-0.8-2.8-0.8v-0.6h5.2l15.7,16.4v-13.3c0-2-0.6-2.4-3.3-2.5v-0.6h7.8v0.6c-2.5,0-3,0.4-3,1.7v18.6H121.9z"/>
		<path d="M145.3,176.7l6.7-17.6c1-2.6,1.5-3,3.5-3v-0.6h-6.9v0.6c2.4,0.1,2.9,0.5,2.3,1.9l-5.9,15.5l-4.4-10.4l2.1-5.2
			c0.5-1.3,1.2-1.8,3.3-1.8v-0.6h-13.7v0.6c1.8,0,2.8,0.3,3.4,1.9l2.7,6.6l-3.6,8.9l-6.1-15.3c-0.6-1.4,0-2.1,1.6-2.1h0.6v-0.6h-8.6
			v0.6h0.2c2.1,0,2.9,0.4,3.9,2.9l6.9,17.7h1.6l4.2-10.3l4.4,10.3H145.3z M139.9,161.2l-1.7-3.9c-0.4-0.9,0.1-1.2,0.9-1.2h1.4
			c1,0,1.2,0.5,0.8,1.4L139.9,161.2z"/>
		<path d="M176.8,165.2c0-6-5.4-10.3-11.7-10.3c-7.1,0-12.2,4.7-12.2,11.3c0,6.2,5.5,10.4,12.1,10.4
			C171.4,176.7,176.8,172,176.8,165.2 M173.7,166.3c0,4.7-2.6,9.5-8.1,9.5c-5.4,0-9.6-4.4-9.6-10.6c0-4,2.3-9.5,8.2-9.5
			C169.7,155.8,173.7,160.1,173.7,166.3"/>
		<path d="M202.1,165.2c0-6-5.4-10.3-11.7-10.3c-7.1,0-12.2,4.7-12.2,11.3c0,6.2,5.5,10.4,12.1,10.4
			C196.6,176.7,202.1,172,202.1,165.2 M198.9,166.3c0,4.7-2.6,9.5-8.1,9.5c-5.4,0-9.6-4.4-9.6-10.6c0-4,2.3-9.5,8.2-9.5
			C195,155.8,198.9,160.1,198.9,166.3"/>
		<path d="M204.6,173.1c0,1.9-0.8,2.4-2.6,2.4h-0.6v0.6H212c8.4,0,12.3-6,12.3-11.1c0-5.5-3.9-10-12.7-10c-1.7,0-3.8,0-5.6,0.1
			c-1.8,0.1-3.5,0.1-4.7,0.2v0.6h0.7c2,0,2.5,0.5,2.5,2.7V173.1z M207.3,155.9c0.4,0,1.3-0.1,2.7-0.1c4.7,0,7,1.2,8.6,2.7
			c2,2,2.7,4.7,2.7,7.2c0,3.4-1.5,6-2.8,7.2c-2.1,2.1-3.9,2.7-8.4,2.7c-2.6,0-2.7-0.5-2.7-1.8V155.9z"/>
	</g>
</g>
<g>
	<path d="M55.2,209.8h0.7v6.6h3.2v0.5h-3.9V209.8z"/>
	<path d="M62.2,209.8h0.7v7.2h-0.7V209.8z"/>
	<path d="M66.9,209.8h2c1.8,0,2.5,0.6,2.5,1.8c0,0.8-0.3,1.2-1,1.5c0.8,0.3,1.3,1,1.3,1.9c0,1.5-1,2-2.6,2h-2.3V209.8z M67.6,213
		h1.6c0.8,0,1.7-0.3,1.7-1.3s-0.7-1.3-1.9-1.3h-1.3V213z M67.6,216.5h1.7c1.3,0,1.8-0.5,1.8-1.5c0-0.8-0.6-1.5-2-1.5h-1.5V216.5z"/>
	<path d="M80.4,217h-0.7l-1.7-3.3h-1.9v3.3h-0.7v-7.2H78c1.4,0,2.2,0.8,2.2,1.9c0,0.9-0.5,1.6-1.5,1.8L80.4,217z M76.2,213.2H78
		c1,0,1.5-0.5,1.5-1.4c0-0.9-0.5-1.4-1.5-1.4h-1.8V213.2z"/>
	<path d="M85.7,209.8h1L89,217h-0.7l-0.7-2.3h-2.7l-0.7,2.3h-0.7L85.7,209.8z M87.4,214.1l-1.2-3.8h0l-1.2,3.8H87.4z"/>
	<path d="M97.1,217h-0.7l-1.7-3.3h-1.9v3.3h-0.7v-7.2h2.4c1.4,0,2.2,0.8,2.2,1.9c0,0.9-0.5,1.6-1.5,1.8L97.1,217z M92.9,213.2h1.8
		c1,0,1.5-0.5,1.5-1.4c0-0.9-0.5-1.4-1.5-1.4h-1.8V213.2z"/>
	<path d="M101.8,214l-2.2-4.1h0.7l1.8,3.5l1.9-3.5h0.7l-2.3,4.1v3h-0.7V214z"/>
	<path d="M112.6,215c0.3,1.1,0.9,1.6,2,1.6c0.9,0,1.4-0.6,1.4-1.4c0-1.9-3.9-1.2-3.9-3.5c0-1.1,0.7-1.9,2.1-1.9c1.1,0,2,0.6,2.3,1.7
		l-0.6,0.2c-0.3-0.8-0.8-1.4-1.7-1.4c-0.8,0-1.4,0.5-1.4,1.3c0,0.5,0.1,0.8,1.5,1.3c2,0.8,2.4,1.3,2.4,2.3c0,1.2-1,1.9-2.2,1.9
		c-1.4,0-2.2-0.6-2.6-1.9L112.6,215z"/>
	<path d="M120.2,217v-7.2h4.1v0.5h-3.4v2.6h2.5v0.5h-2.5v2.9h3.6v0.5H120.2z"/>
	<path d="M132.6,217h-0.7l-1.7-3.3h-1.9v3.3h-0.7v-7.2h2.4c1.4,0,2.2,0.8,2.2,1.9c0,0.9-0.5,1.6-1.5,1.8L132.6,217z M128.4,213.2
		h1.8c1,0,1.5-0.5,1.5-1.4c0-0.9-0.5-1.4-1.5-1.4h-1.8V213.2z"/>
	<path d="M135,209.8h0.7l1.9,6.2h0l2-6.2h0.7L138,217h-0.7L135,209.8z"/>
	<path d="M143.5,209.8h0.7v7.2h-0.7V209.8z"/>
	<path d="M152.1,212c-0.3-1.1-0.9-1.7-1.7-1.7c-1.4,0-2,1.4-2,3.1s0.6,3.1,2.1,3.1c1.2,0,1.6-0.8,1.8-1.7l0.6,0.1
		c-0.3,1.3-0.9,2.2-2.4,2.2c-1.7,0-2.8-1.5-2.8-3.7s1-3.7,2.8-3.7c1.3,0,2,0.9,2.3,2.1L152.1,212z"/>
	<path d="M156.2,217v-7.2h4.1v0.5h-3.4v2.6h2.5v0.5h-2.5v2.9h3.6v0.5H156.2z"/>
	<path d="M163.7,215c0.3,1.1,0.9,1.6,2,1.6c0.9,0,1.4-0.6,1.4-1.4c0-1.9-3.9-1.2-3.9-3.5c0-1.1,0.7-1.9,2.1-1.9c1.1,0,2,0.6,2.3,1.7
		l-0.6,0.2c-0.3-0.8-0.8-1.4-1.7-1.4c-0.8,0-1.4,0.5-1.4,1.3c0,0.5,0.1,0.8,1.5,1.3c2,0.8,2.4,1.3,2.4,2.3c0,1.2-1,1.9-2.2,1.9
		c-1.4,0-2.2-0.6-2.6-1.9L163.7,215z"/>
</g>
<g>
	<path d="M30.9,186.7v0.3c-0.9,0-1.2,0.4-1.2,1.2v3.6c0,1.7-1.1,3.5-4,3.5c-2.6,0-3.9-1.5-3.9-3.4V188c0-0.9-0.2-1-1.2-1v-0.3h3.5
		v0.3h-0.1c-0.7,0-1.1,0.2-1.1,1v3.8c0,1.8,1.1,2.9,3.1,2.9c1.5,0,3.1-0.6,3.1-2.9v-3.1c0-1.3-0.2-1.5-1.3-1.6v-0.3H30.9z"/>
	<path d="M51,195.2l-7-7.3v5.8c0,1,0.2,1.2,1.4,1.2v0.3h-3.1v-0.3h0.1c0.8,0,1.1-0.3,1.1-0.9v-6.6c-0.3-0.2-0.7-0.3-1.1-0.3v-0.3
		h2.1l6.4,6.6V188c0-0.8-0.2-1-1.3-1v-0.3h3.2v0.3c-1,0-1.2,0.2-1.2,0.7v7.5H51z"/>
	<path d="M67.5,195.1h-3.3v-0.3c0.8,0,1-0.3,1-1.2V188c0-0.7-0.3-0.9-1-1v-0.3h3.3v0.3c-0.9,0-1.1,0.2-1.1,1.1v5.7
		c0,0.8,0.2,1.1,1.1,1.1V195.1z"/>
	<path d="M83.2,195.4l-2.9-7.3c-0.3-0.9-0.5-1.1-1.3-1.1v-0.3h3.7v0.3c-1.2,0-1.5,0.3-1.3,0.9l2.4,6l2.1-5.6
		c0.1-0.4,0.2-0.6,0.2-0.8c0-0.4-0.3-0.6-1.3-0.6v-0.3h3.1v0.3c-0.7,0-1.1,0.3-1.4,1.2l-2.8,7.2H83.2z"/>
	<path d="M105.3,192.1H105c-0.1-1-0.4-1.1-0.9-1.1h-2.3v2.9c0,0.6,0.2,0.7,0.7,0.7h2.1c0.9,0,1.2-0.4,1.6-1.5h0.2l-0.2,2H99v-0.3
		h0.4c1.1,0,1.3-0.3,1.3-1.1v-5.7c0-0.8-0.2-1.1-1.1-1.1h-0.3v-0.3h6.5l0.1,1.9h-0.2c-0.2-1.1-0.5-1.4-1-1.4h-2.8v3.3h2.4
		c0.5,0,0.7-0.2,0.8-1h0.3V192.1z"/>
	<path d="M120.5,193.9c0,0.8,0.3,1,1.1,1h0.3v0.3h-3.8v-0.3h0.2c0.8,0,1.1-0.2,1.1-1.1v-5.7c0-0.8-0.2-1.1-1-1.1h-0.3v-0.3
		c0.3,0,1.1-0.1,1.7-0.1c0.6,0,0.8,0,1.7,0c2.5,0,3.6,1,3.6,2.4c0,1-0.7,1.9-1.8,2.2c0.5,0.4,0.9,0.8,1.5,1.4l1.1,1.1
		c0.8,0.8,1.6,1.3,2.7,1.4v0.2c-2.4,0.1-3-0.4-4.2-1.6l-0.9-0.9c-0.6-0.6-1.1-1-1.4-1.2c-0.3,0-0.6,0-0.9,0c-0.3,0-0.5,0-0.7,0
		V193.9z M120.5,191.3c0.3,0,0.5,0,0.8,0c1.5,0,2.5-0.6,2.5-2.3c0-1.3-0.6-2.2-2.6-2.2c-0.3,0-0.4,0-0.7,0V191.3z"/>
	<path d="M140.3,193.1c0.3,1.2,1.2,1.9,2.3,1.9c0.9,0,1.9-0.5,1.9-1.6c0-1.9-4.3-2.5-4.3-4.9c0-1.1,1-2,2.4-2c1.1,0,1.4,0.3,1.8,0.3
		c0.1,0,0.2,0,0.2-0.1h0.2l0.2,1.7h-0.2c-0.4-1-1.2-1.6-2.2-1.6c-0.9,0-1.5,0.5-1.5,1.3c0,1.9,4.3,2.4,4.3,4.9
		c0,1.3-1.2,2.3-2.8,2.3c-0.7,0-1.7-0.4-1.9-0.4c-0.1,0-0.2,0.1-0.3,0.1h-0.2l-0.3-2.1H140.3z"/>
	<path d="M160.7,195.1h-3.3v-0.3c0.8,0,1-0.3,1-1.2V188c0-0.7-0.3-0.9-1-1v-0.3h3.3v0.3c-0.9,0-1.1,0.2-1.1,1.1v5.7
		c0,0.8,0.2,1.1,1.1,1.1V195.1z"/>
	<path d="M177.3,193.9c0,0.7,0.2,1,1.1,1h0.5v0.3h-4.3v-0.3h0.5c0.8,0,1.1-0.3,1.1-1v-6.7h-2.3c-0.5,0-0.8,0.3-1,1.5h-0.2l0.2-2.2
		h0.3c0,0.1,0.1,0.1,0.1,0.2c0.1,0,0.2,0,0.3,0h6.5c0.2,0,0.4,0,0.4-0.2h0.3l0.2,2.2h-0.2c-0.2-1.2-0.4-1.5-1-1.5h-2.3V193.9z"/>
	<path d="M199,188c0.4-0.7,0.2-1-0.7-1v-0.3h3.1v0.3c-0.9,0.1-1.3,0.4-1.7,1.1l-2.2,3.8v2c0,0.7,0.3,1,1.1,1h0.2v0.3H195v-0.3h0.3
		c0.8,0,1.1-0.3,1.1-1V192l-2.4-3.8c-0.7-1-1-1.2-1.9-1.3v-0.3h3.6v0.3c-1.1,0-1.1,0.3-0.7,0.9l2.2,3.3L199,188z"/>
</g>
<line class="st10" x1="72.1" y1="201.3" x2="153.9" y2="201.3"/>
</svg>
